<svg width="30" height="30" viewBox="0 0 30 30" fill="none" xmlns="http://www.w3.org/2000/svg">
<g clip-path="url(#clip0_51_278)">
<path d="M30 25C30 27.0675 28.3175 28.75 26.25 28.75V30H23.75V28.75C21.6825 28.75 20 27.0675 20 25H22.5C22.5 25.6887 23.06 26.25 23.75 26.25H26.25C26.94 26.25 27.5 25.6887 27.5 25C27.5 24.5275 27.1613 24.1275 26.695 24.05L22.8938 23.4163C21.2163 23.1375 20 21.7 20 20C20 17.9325 21.6825 16.25 23.75 16.25V15H26.25V16.25C28.3175 16.25 30 17.9325 30 20H27.5C27.5 19.3113 26.94 18.75 26.25 18.75H23.75C23.06 18.75 22.5 19.3113 22.5 20C22.5 20.4725 22.8388 20.8725 23.305 20.95L27.1063 21.5837C28.7838 21.8625 30 23.3 30 25ZM17.6263 18.75C17.8163 17.8213 18.2288 16.98 18.7813 16.25H6.25V25H17.5V22.5H8.75V18.75H17.6263ZM6.25 13.75H12.5V11.25H6.25V13.75ZM12.5 6.25H6.25V8.75H12.5V6.25ZM20.0388 30H1.25V3.75C1.25 1.6825 2.9325 0 5 0H16.7675L26.25 9.4825V12.5H23.75V11.25H15V2.5H5C4.31125 2.5 3.75 3.06125 3.75 3.75V27.5H18.03C18.47 28.5012 19.1713 29.3538 20.0388 30ZM17.5 8.75H21.9825L17.5 4.2675V8.75Z" fill="#FAFAFA"/>
</g>
<defs>
<clipPath id="clip0_51_278">
<rect width="30" height="30" fill="white"/>
</clipPath>
</defs>
</svg>
