<svg width="30" height="30" viewBox="0 0 30 30" fill="none" xmlns="http://www.w3.org/2000/svg">
<g clip-path="url(#clip0_44_117)">
<path d="M21.25 30H8.75C5.30375 30 2.5 27.1963 2.5 23.75V6.25C2.5 2.80375 5.30375 0 8.75 0H21.25C24.6963 0 27.5 2.80375 27.5 6.25V23.75C27.5 27.1963 24.6963 30 21.25 30ZM8.75 2.5C6.6825 2.5 5 4.1825 5 6.25V23.75C5 25.8175 6.6825 27.5 8.75 27.5H21.25C23.3175 27.5 25 25.8175 25 23.75V6.25C25 4.1825 23.3175 2.5 21.25 2.5H8.75ZM22.5 7.5C22.5 6.81 21.94 6.25 21.25 6.25H16.25C15.56 6.25 15 6.81 15 7.5C15 8.19 15.56 8.75 16.25 8.75H21.25C21.94 8.75 22.5 8.19 22.5 7.5ZM22.5 15C22.5 14.31 21.94 13.75 21.25 13.75H16.25C15.56 13.75 15 14.31 15 15C15 15.69 15.56 16.25 16.25 16.25H21.25C21.94 16.25 22.5 15.69 22.5 15ZM22.5 22.5C22.5 21.81 21.94 21.25 21.25 21.25H16.25C15.56 21.25 15 21.81 15 22.5C15 23.19 15.56 23.75 16.25 23.75H21.25C21.94 23.75 22.5 23.19 22.5 22.5ZM12.5 8.75V6.25C12.5 5.56 11.94 5 11.25 5H8.75C8.06 5 7.5 5.56 7.5 6.25V8.75C7.5 9.44 8.06 10 8.75 10H11.25C11.94 10 12.5 9.44 12.5 8.75ZM12.5 16.25V13.75C12.5 13.06 11.94 12.5 11.25 12.5H8.75C8.06 12.5 7.5 13.06 7.5 13.75V16.25C7.5 16.94 8.06 17.5 8.75 17.5H11.25C11.94 17.5 12.5 16.94 12.5 16.25ZM12.5 23.75V21.25C12.5 20.56 11.94 20 11.25 20H8.75C8.06 20 7.5 20.56 7.5 21.25V23.75C7.5 24.44 8.06 25 8.75 25H11.25C11.94 25 12.5 24.44 12.5 23.75Z" fill="#FAFAFA"/>
</g>
<defs>
<clipPath id="clip0_44_117">
<rect width="30" height="30" fill="white"/>
</clipPath>
</defs>
</svg>
