<svg width="30" height="30" viewBox="0 0 30 30" fill="none" xmlns="http://www.w3.org/2000/svg">
<path d="M27.5583 3.90252L24.7983 1.83002C24.0261 1.24791 23.1076 0.786448 22.096 0.47233C21.0844 0.158212 19.9998 -0.00231999 18.905 2.53318e-05H8.33333C6.124 0.00201015 4.00593 0.661127 2.4437 1.8328C0.881469 3.00447 0.00264643 4.59303 0 6.25002V23.75C0.00264643 25.407 0.881469 26.9956 2.4437 28.1672C4.00593 29.3389 6.124 29.998 8.33333 30H21.6666C23.876 29.998 25.994 29.3389 27.5563 28.1672C29.1185 26.9956 29.9973 25.407 30 23.75V8.32127C30.0027 7.50025 29.7883 6.68698 29.3691 5.92851C28.95 5.17004 28.3346 4.48143 27.5583 3.90252ZM25.2016 5.67002C25.4381 5.84667 25.6497 6.04102 25.8333 6.25002H21.6666V3.12502C21.9449 3.26417 22.2044 3.42325 22.4416 3.60002L25.2016 5.67002ZM26.6666 23.75C26.6666 24.7446 26.1399 25.6984 25.2022 26.4017C24.2645 27.1049 22.9927 27.5 21.6666 27.5H8.33333C7.00724 27.5 5.73548 27.1049 4.7978 26.4017C3.86011 25.6984 3.33333 24.7446 3.33333 23.75V6.25002C3.33333 5.25546 3.86011 4.30163 4.7978 3.59837C5.73548 2.89511 7.00724 2.50002 8.33333 2.50002H18.3333V6.25002C18.3333 6.91306 18.6845 7.54894 19.3096 8.01779C19.9347 8.48663 20.7826 8.75002 21.6666 8.75002H26.6666V23.75ZM21.6666 11.25C22.1087 11.25 22.5326 11.3817 22.8452 11.6161C23.1577 11.8506 23.3333 12.1685 23.3333 12.5C23.3333 12.8315 23.1577 13.1495 22.8452 13.3839C22.5326 13.6183 22.1087 13.75 21.6666 13.75H8.33333C7.8913 13.75 7.46738 13.6183 7.15482 13.3839C6.84226 13.1495 6.66666 12.8315 6.66666 12.5C6.66666 12.1685 6.84226 11.8506 7.15482 11.6161C7.46738 11.3817 7.8913 11.25 8.33333 11.25H21.6666ZM23.3333 17.5C23.3333 17.8315 23.1577 18.1495 22.8452 18.3839C22.5326 18.6183 22.1087 18.75 21.6666 18.75H8.33333C7.8913 18.75 7.46738 18.6183 7.15482 18.3839C6.84226 18.1495 6.66666 17.8315 6.66666 17.5C6.66666 17.1685 6.84226 16.8505 7.15482 16.6161C7.46738 16.3817 7.8913 16.25 8.33333 16.25H21.6666C22.1087 16.25 22.5326 16.3817 22.8452 16.6161C23.1577 16.8505 23.3333 17.1685 23.3333 17.5ZM23.0133 21.7663C23.2724 22.0336 23.3798 22.367 23.312 22.6935C23.2442 23.02 23.0068 23.3132 22.6516 23.5088C20.963 24.4112 18.963 24.929 16.8917 25C15.6815 24.9956 14.508 24.6876 13.5583 24.125C13.0117 23.8438 12.8033 23.75 12.3917 23.75C11.2774 23.8793 10.226 24.2211 9.33832 24.7425C8.98624 24.9307 8.55039 25.009 8.12281 24.9607C7.69524 24.9125 7.30941 24.7415 7.0468 24.4838C6.78419 24.2262 6.66536 23.9021 6.71541 23.58C6.76545 23.2579 6.98044 22.963 7.31499 22.7575C8.78362 21.9024 10.5471 21.3794 12.3983 21.25C13.5085 21.2633 14.5819 21.5511 15.4517 22.0688C15.8481 22.3362 16.3586 22.4891 16.8917 22.5C18.2544 22.4234 19.5649 22.0742 20.6866 21.4888C21.0443 21.2943 21.4903 21.2143 21.9266 21.2663C22.3628 21.3184 22.7537 21.4982 23.0133 21.7663Z" fill="#FAFAFA"/>
</svg>
