<svg width="19" height="21" viewBox="0 0 19 21" fill="none" xmlns="http://www.w3.org/2000/svg">
<g clip-path="url(#clip0_42_28)">
<path d="M9.49984 0C6.98112 0.00301095 4.56634 1.11022 2.78533 3.0787C1.00433 5.04718 0.00256274 7.71615 -0.000161446 10.5C-0.0991198 18.8773 8.83405 24.0004 14.9623 19.0899C15.0908 18.9911 15.2003 18.8652 15.2846 18.7195C15.3688 18.5737 15.4262 18.411 15.4534 18.2407C15.4806 18.0704 15.4771 17.8958 15.443 17.727C15.409 17.5582 15.3451 17.3985 15.255 17.257C15.1649 17.1156 15.0504 16.9953 14.9181 16.9029C14.7858 16.8106 14.6383 16.748 14.484 16.7189C14.3298 16.6897 14.1718 16.6946 14.0193 16.7331C13.8667 16.7717 13.7226 16.8432 13.5951 16.9435C9.04067 20.6343 2.26638 16.7528 2.37484 10.5C2.74851 0.0612497 16.252 0.0629996 16.6248 10.5V11.8125C16.6248 12.1606 16.4997 12.4944 16.277 12.7406C16.0543 12.9867 15.7523 13.125 15.4373 13.125C15.1224 13.125 14.8203 12.9867 14.5976 12.7406C14.375 12.4944 14.2498 12.1606 14.2498 11.8125V10.5C14.0503 3.56213 4.94855 3.563 4.74984 10.5C4.75775 11.5175 5.03224 12.5106 5.54011 13.3593C6.04798 14.2079 6.76746 14.8757 7.61152 15.2819C8.45559 15.6881 9.38806 15.8153 10.2961 15.648C11.2042 15.4808 12.049 15.0263 12.7283 14.3395C13.1998 14.9499 13.8289 15.3864 14.5311 15.5906C15.2334 15.7947 15.9754 15.7568 16.6576 15.482C17.3399 15.2071 17.9298 14.7083 18.3484 14.0525C18.767 13.3966 18.9943 12.6151 18.9998 11.8125V10.5C18.9971 7.71615 17.9953 5.04718 16.2143 3.0787C14.4333 1.11022 12.0186 0.00301095 9.49984 0ZM9.49984 13.125C8.86995 13.125 8.26586 12.8484 7.82046 12.3562C7.37506 11.8639 7.12484 11.1962 7.12484 10.5C7.12484 9.80381 7.37506 9.13613 7.82046 8.64384C8.26586 8.15156 8.86995 7.875 9.49984 7.875C10.1297 7.875 10.7338 8.15156 11.1792 8.64384C11.6246 9.13613 11.8748 9.80381 11.8748 10.5C11.8748 11.1962 11.6246 11.8639 11.1792 12.3562C10.7338 12.8484 10.1297 13.125 9.49984 13.125Z" fill="#060608"/>
</g>
<defs>
<clipPath id="clip0_42_28">
<rect width="19" height="21" fill="white"/>
</clipPath>
</defs>
</svg>
