<svg width="29" height="30" viewBox="0 0 29 30" fill="none" xmlns="http://www.w3.org/2000/svg">
<g clip-path="url(#clip0_42_179)">
<path d="M28.4472 15.0912C28.4472 22.5775 23.2847 28.7837 16.5456 29.91V19.4562H19.8224L20.4462 15.1312H16.5456V12.325C16.5456 11.1412 17.0908 9.98875 18.8366 9.98875H20.6095V6.30625C20.6095 6.30625 19 6.01375 17.462 6.01375C14.2499 6.01375 12.1516 8.085 12.1516 11.8337V15.13H8.58109V19.455H12.1516V29.9087C5.41361 28.7812 0.25 22.5762 0.25 15.0912C0.25 6.8075 6.56264 0.0912476 14.3486 0.0912476C22.1345 0.0912476 28.4472 6.80625 28.4472 15.0912Z" fill="#172743"/>
</g>
<defs>
<clipPath id="clip0_42_179">
<path d="M0.25 10C0.25 4.47715 4.72715 0 10.25 0H18.4472C23.97 0 28.4472 4.47715 28.4472 10V30H0.25V10Z" fill="white"/>
</clipPath>
</defs>
</svg>
