<svg width="60" height="60" viewBox="0 0 60 60" fill="none" xmlns="http://www.w3.org/2000/svg">
<g clip-path="url(#clip0_51_265)">
<path d="M7.5 26.25C7.5 21.425 11.425 17.5 16.25 17.5C21.075 17.5 25 21.425 25 26.25C25 31.075 21.075 35 16.25 35C11.425 35 7.5 31.075 7.5 26.25ZM16.25 40C7.3 40 0 47.3 0 56.25C0 58.325 1.675 60 3.75 60C5.825 60 7.5 58.325 7.5 56.25C7.5 51.425 11.425 47.5 16.25 47.5C21.075 47.5 25 51.425 25 56.25C25 58.325 26.675 60 28.75 60C30.825 60 32.5 58.325 32.5 56.25C32.5 47.3 25.2 40 16.25 40ZM46.25 0H24.9C20 0 15.45 2.625 13 6.875C11.975 8.675 12.575 10.95 14.375 12C16.15 13.025 18.45 12.425 19.5 10.625C20.625 8.7 22.7 7.5 24.925 7.5H46.275C49.725 7.5 52.525 10.3 52.525 13.75V31.25C52.525 34.7 49.725 37.5 46.275 37.5H36.275C34.2 37.5 32.525 39.175 32.525 41.25C32.525 43.325 34.2 45 36.275 45H46.275C53.85 45 60.025 38.825 60.025 31.25V13.75C60.025 6.175 53.85 0 46.275 0H46.25ZM31.1 31.4C31.825 32.125 32.8 32.5 33.75 32.5C34.7 32.5 35.675 32.125 36.4 31.4L41.775 26.025L43.875 28.125C45.225 29.475 47.5 28.525 47.5 26.625V17.125C47.5 15.95 46.55 15 45.375 15H35.875C33.975 15 33.025 17.275 34.375 18.625L36.475 20.725L31.1 26.1C29.625 27.575 29.625 29.95 31.1 31.4Z" fill="#060608"/>
</g>
<defs>
<clipPath id="clip0_51_265">
<rect width="60" height="60" fill="white"/>
</clipPath>
</defs>
</svg>
