<svg width="29" height="30" viewBox="0 0 29 30" fill="none" xmlns="http://www.w3.org/2000/svg">
<g clip-path="url(#clip0_42_182)">
<path d="M14.3486 2.7025C18.1129 2.7025 18.5594 2.7175 20.0456 2.79C21.5823 2.865 23.1649 3.2375 24.2846 4.42875C25.4148 5.63125 25.7543 7.29875 25.8248 8.93875C25.893 10.52 25.9071 10.995 25.9071 15C25.9071 19.005 25.893 19.48 25.8248 21.0613C25.7555 22.6875 25.3972 24.3875 24.2846 25.5713C23.1543 26.7738 21.5882 27.135 20.0456 27.21C18.5594 27.2825 18.1129 27.2975 14.3486 27.2975C10.5843 27.2975 10.1378 27.2825 8.65158 27.21C7.13481 27.1362 5.51582 26.7463 4.41261 25.5713C3.28825 24.375 2.94283 22.6913 2.87234 21.0613C2.80419 19.48 2.7901 19.005 2.7901 15C2.7901 10.995 2.80419 10.52 2.87234 8.93875C2.94166 7.31875 3.30352 5.60875 4.41261 4.42875C5.5405 3.22875 7.11366 2.865 8.65158 2.79C10.1378 2.7175 10.5843 2.7025 14.3486 2.7025ZM14.3486 0C10.5196 0 10.0391 0.0175 8.53527 0.09C6.35586 0.19625 4.19173 0.84125 2.61621 2.5175C1.03482 4.2 0.434457 6.4975 0.334592 8.815C0.266448 10.415 0.25 10.9262 0.25 15C0.25 19.0737 0.266448 19.585 0.334592 21.185C0.434457 23.5012 1.04305 25.81 2.61621 27.4825C4.19643 29.1637 6.35939 29.8037 8.53527 29.91C10.0391 29.9825 10.5196 30 14.3486 30C18.1775 30 18.6581 29.9825 20.1619 29.91C22.3401 29.8037 24.5066 29.1575 26.081 27.4825C27.6635 25.7987 28.2627 23.5025 28.3626 21.185C28.4307 19.585 28.4472 19.0737 28.4472 15C28.4472 10.9262 28.4307 10.415 28.3626 8.815C28.2627 6.49625 27.6553 4.1925 26.081 2.5175C24.5031 0.83875 22.3343 0.195 20.1619 0.09C18.6581 0.0175 18.1775 0 14.3486 0Z" fill="#7E1B1B"/>
<path d="M14.3486 7.2975C10.3505 7.2975 7.10898 10.7463 7.10898 15C7.10898 19.2538 10.3505 22.7025 14.3486 22.7025C18.3467 22.7025 21.5882 19.2538 21.5882 15C21.5882 10.7463 18.3467 7.2975 14.3486 7.2975ZM14.3486 20C11.7533 20 9.64907 17.7613 9.64907 15C9.64907 12.2388 11.7533 10 14.3486 10C16.9439 10 19.0481 12.2388 19.0481 15C19.0481 17.7613 16.9439 20 14.3486 20Z" fill="#7E1B1B"/>
<path d="M21.8749 8.79251C22.8092 8.79251 23.5667 7.98662 23.5667 6.9925C23.5667 5.99839 22.8092 5.1925 21.8749 5.1925C20.9405 5.1925 20.183 5.99839 20.183 6.9925C20.183 7.98662 20.9405 8.79251 21.8749 8.79251Z" fill="#7E1B1B"/>
</g>
<defs>
<clipPath id="clip0_42_182">
<path d="M0.25 10C0.25 4.47715 4.72715 0 10.25 0H18.4472C23.97 0 28.4472 4.47715 28.4472 10V30H0.25V10Z" fill="white"/>
</clipPath>
</defs>
</svg>
