<svg width="60" height="60" viewBox="0 0 60 60" fill="none" xmlns="http://www.w3.org/2000/svg">
<path d="M28.6308 35.045C17.9765 36.008 9.8594 45.0107 10.0008 55.7075V56.25C10.0008 58.321 11.6798 60 13.7508 60C15.8219 60 17.5008 58.321 17.5008 56.25V55.5575C17.3881 48.9897 22.235 43.389 28.7508 42.5575C35.6289 41.8755 41.7577 46.8984 42.4398 53.7765C42.4801 54.1831 42.5005 54.5914 42.5008 55V56.25C42.5008 58.321 44.1798 60 46.2508 60C48.3219 60 50.0008 58.321 50.0008 56.25V54.9999C49.9886 43.9418 41.0143 34.9873 29.9562 34.9995C29.5141 35.0001 29.0721 35.0152 28.6308 35.045Z" fill="#060608"/>
<path d="M30.0009 30C38.2851 30 45.0009 23.2842 45.0009 15C45.0009 6.71578 38.2851 0 30.0009 0C21.7166 0 15.0009 6.71578 15.0009 15C15.0091 23.2808 21.72 29.9917 30.0009 30ZM30.0009 7.5C34.143 7.5 37.5009 10.8579 37.5009 15C37.5009 19.1421 34.143 22.5 30.0009 22.5C25.8587 22.5 22.5009 19.1421 22.5009 15C22.5009 10.8579 25.8587 7.5 30.0009 7.5Z" fill="#060608"/>
</svg>
