<svg width="60" height="60" viewBox="0 0 60 60" fill="none" xmlns="http://www.w3.org/2000/svg">
<g clip-path="url(#clip0_51_267)">
<path d="M42.5 60H17.5C10.6075 60 5 54.3925 5 47.5V12.5C5 5.6075 10.6075 0 17.5 0H42.5C49.3925 0 55 5.6075 55 12.5V47.5C55 54.3925 49.3925 60 42.5 60ZM17.5 5C13.365 5 10 8.365 10 12.5V47.5C10 51.635 13.365 55 17.5 55H42.5C46.635 55 50 51.635 50 47.5V12.5C50 8.365 46.635 5 42.5 5H17.5ZM45 15C45 13.62 43.88 12.5 42.5 12.5H32.5C31.12 12.5 30 13.62 30 15C30 16.38 31.12 17.5 32.5 17.5H42.5C43.88 17.5 45 16.38 45 15ZM45 30C45 28.62 43.88 27.5 42.5 27.5H32.5C31.12 27.5 30 28.62 30 30C30 31.38 31.12 32.5 32.5 32.5H42.5C43.88 32.5 45 31.38 45 30ZM45 45C45 43.62 43.88 42.5 42.5 42.5H32.5C31.12 42.5 30 43.62 30 45C30 46.38 31.12 47.5 32.5 47.5H42.5C43.88 47.5 45 46.38 45 45ZM25 17.5V12.5C25 11.12 23.88 10 22.5 10H17.5C16.12 10 15 11.12 15 12.5V17.5C15 18.88 16.12 20 17.5 20H22.5C23.88 20 25 18.88 25 17.5ZM25 32.5V27.5C25 26.12 23.88 25 22.5 25H17.5C16.12 25 15 26.12 15 27.5V32.5C15 33.88 16.12 35 17.5 35H22.5C23.88 35 25 33.88 25 32.5ZM25 47.5V42.5C25 41.12 23.88 40 22.5 40H17.5C16.12 40 15 41.12 15 42.5V47.5C15 48.88 16.12 50 17.5 50H22.5C23.88 50 25 48.88 25 47.5Z" fill="#060608"/>
</g>
<defs>
<clipPath id="clip0_51_267">
<rect width="60" height="60" fill="white"/>
</clipPath>
</defs>
</svg>
