<svg width="30" height="30" viewBox="0 0 30 30" fill="none" xmlns="http://www.w3.org/2000/svg">
<g clip-path="url(#clip0_44_108)">
<path d="M9.375 16.25C8.26248 16.25 7.17494 15.9201 6.24992 15.302C5.32489 14.6839 4.60392 13.8054 4.17818 12.7776C3.75243 11.7498 3.64104 10.6188 3.85808 9.52762C4.07512 8.43648 4.61085 7.4342 5.39752 6.64753C6.18419 5.86086 7.18647 5.32513 8.27762 5.10809C9.36876 4.89104 10.4998 5.00244 11.5276 5.42818C12.5554 5.85392 13.4339 6.57489 14.052 7.49992C14.6701 8.42495 15 9.51248 15 10.625C14.9983 12.1163 14.4052 13.5461 13.3506 14.6007C12.2961 15.6552 10.8663 16.2483 9.375 16.25ZM9.375 8.75C9.00416 8.75 8.64165 8.85997 8.33331 9.066C8.02496 9.27203 7.78464 9.56486 7.64273 9.90747C7.50081 10.2501 7.46368 10.6271 7.53603 10.9908C7.60837 11.3545 7.78695 11.6886 8.04917 11.9508C8.3114 12.2131 8.64549 12.3916 9.00921 12.464C9.37292 12.5363 9.74992 12.4992 10.0925 12.3573C10.4351 12.2154 10.728 11.975 10.934 11.6667C11.14 11.3584 11.25 10.9958 11.25 10.625C11.25 10.1277 11.0525 9.65081 10.7008 9.29918C10.3492 8.94755 9.87228 8.75 9.375 8.75ZM18.75 25.625C18.748 23.8022 18.023 22.0547 16.7342 20.7658C15.4453 19.477 13.6978 18.752 11.875 18.75H6.875C5.05225 18.752 3.30472 19.477 2.01583 20.7658C0.726951 22.0547 0.00198521 23.8022 0 25.625L0 30H3.75V25.625C3.75 24.7962 4.07924 24.0013 4.66529 23.4153C5.25134 22.8292 6.0462 22.5 6.875 22.5H11.875C12.2854 22.5 12.6917 22.5808 13.0709 22.7379C13.45 22.8949 13.7945 23.1251 14.0847 23.4153C14.3749 23.7055 14.6051 24.05 14.7621 24.4291C14.9192 24.8083 15 25.2146 15 25.625V30H18.75V25.625ZM21.875 11.25C20.7625 11.25 19.6749 10.9201 18.7499 10.302C17.8249 9.68394 17.1039 8.80543 16.6782 7.7776C16.2524 6.74976 16.141 5.61876 16.3581 4.52762C16.5751 3.43648 17.1109 2.4342 17.8975 1.64753C18.6842 0.860857 19.6865 0.325127 20.7776 0.108085C21.8688 -0.108957 22.9998 0.00243723 24.0276 0.42818C25.0554 0.853923 25.9339 1.57489 26.552 2.49992C27.1701 3.42495 27.5 4.51248 27.5 5.625C27.4983 7.11634 26.9052 8.54612 25.8506 9.60065C24.7961 10.6552 23.3663 11.2483 21.875 11.25ZM21.875 3.75C21.5042 3.75 21.1416 3.85997 20.8333 4.066C20.525 4.27202 20.2846 4.56486 20.1427 4.90747C20.0008 5.25008 19.9637 5.62708 20.036 5.9908C20.1084 6.35451 20.287 6.6886 20.5492 6.95083C20.8114 7.21305 21.1455 7.39163 21.5092 7.46397C21.8729 7.53632 22.2499 7.49919 22.5925 7.35728C22.9351 7.21536 23.228 6.97504 23.434 6.6667C23.64 6.35835 23.75 5.99584 23.75 5.625C23.75 5.12772 23.5525 4.65081 23.2008 4.29918C22.8492 3.94755 22.3723 3.75 21.875 3.75ZM30 20.625C29.998 18.8022 29.273 17.0547 27.9842 15.7658C26.6953 14.477 24.9478 13.752 23.125 13.75H18.75V17.5H23.125C23.9538 17.5 24.7487 17.8292 25.3347 18.4153C25.9208 19.0013 26.25 19.7962 26.25 20.625V25H30V20.625Z" fill="#FAFAFA"/>
</g>
<defs>
<clipPath id="clip0_44_108">
<rect width="30" height="30" fill="white"/>
</clipPath>
</defs>
</svg>
