<svg width="10" height="10" viewBox="0 0 10 10" fill="none" xmlns="http://www.w3.org/2000/svg">
<path d="M3.48594 1.22312L0.207689 7.62197C0.0746653 7.88317 0 8.2365 0 8.6048C0 8.9731 0.0746653 9.32643 0.207689 9.58763C0.274084 9.7183 0.353078 9.82201 0.440111 9.89278C0.527145 9.96356 0.620497 10 0.714783 10C0.809068 10 0.90242 9.96356 0.989454 9.89278C1.07649 9.82201 1.15548 9.7183 1.22188 9.58763L4.49299 3.17484C4.55938 3.04417 4.63838 2.94046 4.72541 2.86968C4.81244 2.79891 4.9058 2.76247 5.00008 2.76247C5.09437 2.76247 5.18772 2.79891 5.27475 2.86968C5.36179 2.94046 5.44078 3.04417 5.50718 3.17484L8.77829 9.58763C8.91183 9.85014 9.09333 9.99836 9.28286 9.99966C9.47238 10.001 9.65441 9.85526 9.7889 9.5946C9.92339 9.33394 9.99933 8.97967 10 8.60973C10.0007 8.23979 9.92602 7.88448 9.79247 7.62197L6.51422 1.22312C6.11247 0.439918 5.56789 0 5.00008 0C4.43228 0 3.88769 0.439918 3.48594 1.22312Z" fill="#FAFAFA"/>
</svg>
