<svg width="215" height="207" viewBox="0 0 215 207" fill="none" xmlns="http://www.w3.org/2000/svg">
<g clip-path="url(#clip0_51_182)">
<path d="M215 17.25V0H26.875C12.0579 0 0 11.6093 0 25.875V207H17.9167V25.875C17.9167 21.1226 21.939 17.25 26.875 17.25H62.7083V34.5C47.8912 34.5 35.8333 46.1092 35.8333 60.375V172.5H215V60.375C215 46.1092 202.942 34.5 188.125 34.5V17.25H215ZM197.083 60.375V155.25H53.75V60.375C53.75 55.6226 57.7723 51.75 62.7083 51.75H188.125C193.061 51.75 197.083 55.6226 197.083 60.375ZM170.208 34.5H80.625V17.25H170.208V34.5Z" fill="#FAFAFA"/>
<g clip-path="url(#clip1_51_182)">
<path d="M162.208 100.001C163.516 97.3772 164.223 94.4382 164.223 91.2542C164.223 82.7171 158.991 75.6495 151.496 73.0604C152.345 72.6055 153.193 72.0457 153.9 71.3459C157.612 67.6722 157.152 61.5143 157.152 61.5143C157.152 61.5143 150.931 61.0594 147.219 64.7332C146.476 65.4679 145.875 66.3426 145.416 67.2523C144.638 64.7332 143.613 62.8788 142.941 61.6892L139.83 63.2987L133.644 66.6925C134.28 67.8471 135.235 69.5965 135.694 72.0107H132.301C129.614 72.0107 126.998 72.5705 124.594 73.6202C123.392 73.0954 122.119 72.6755 120.811 72.4306C121.271 72.1157 121.695 71.7658 122.119 71.3809C125.831 67.7072 125.372 61.5492 125.372 61.5492C125.372 61.5492 119.15 61.0944 115.438 64.7682C114.696 65.5029 114.095 66.3776 113.635 67.2873C112.857 64.7682 111.832 62.9138 111.16 61.7242L108.05 63.3336L101.863 66.7275C102.499 67.9171 103.489 69.6665 103.913 72.1157C94.0151 72.9204 86.4853 81.0727 86.4853 91.2892C86.4853 94.4732 87.1923 97.4122 88.5003 100.036H82.9148V133.275C82.9148 140.028 88.4649 145.521 95.2877 145.521H155.385C162.208 145.521 167.758 140.028 167.758 133.275V100.001H162.208ZM145.133 100.001H133.927C135.235 97.3772 135.942 94.4382 135.942 91.2542C135.942 88.0703 135.235 85.1313 133.927 82.5072H145.133C149.976 82.5072 153.617 86.2509 153.617 91.2542C153.617 96.2575 149.976 100.001 145.133 100.001ZM97.0553 91.2542C97.0553 86.2509 100.696 82.5072 105.54 82.5072H116.887C121.73 82.5072 125.372 86.2509 125.372 91.2542C125.372 96.2575 121.73 100.001 116.887 100.001H105.54C100.696 100.001 97.0553 96.2575 97.0553 91.2542ZM157.152 133.24C157.152 134.22 156.375 134.989 155.385 134.989H95.2877C94.2979 134.989 93.5202 134.22 93.5202 133.24V127.992H150.082V117.495H93.5202V110.498H157.152V133.24Z" fill="#FAFAFA"/>
</g>
</g>
<defs>
<clipPath id="clip0_51_182">
<rect width="215" height="207" fill="white"/>
</clipPath>
<clipPath id="clip1_51_182">
<rect width="84.8431" height="83.9717" fill="white" transform="translate(82.9148 61.5142)"/>
</clipPath>
</defs>
</svg>
