<svg width="136" height="120" viewBox="0 0 136 120" fill="none" xmlns="http://www.w3.org/2000/svg">
<g clip-path="url(#clip0_51_164)">
<path d="M136 10V0H17C7.62733 0 0 6.73 0 15V120H11.3333V15C11.3333 12.245 13.8777 10 17 10H39.6667V20C30.294 20 22.6667 26.73 22.6667 35V100H136V35C136 26.73 128.373 20 119 20V10H136ZM124.667 35V90H34V35C34 32.245 36.5443 30 39.6667 30H119C122.122 30 124.667 32.245 124.667 35ZM107.667 20H51V10H107.667V20Z" fill="#172743"/>
<g clip-path="url(#clip1_51_164)">
<path d="M102.322 57.9679C103.218 56.4437 103.703 54.7366 103.703 52.8873C103.703 47.9286 100.116 43.8234 94.9772 42.3195C95.559 42.0553 96.1407 41.7302 96.6255 41.3237C99.1706 39.1898 98.8555 35.6131 98.8555 35.6131C98.8555 35.6131 94.5894 35.3489 92.0443 37.4827C91.5353 37.9095 91.1233 38.4176 90.8081 38.946C90.2749 37.4827 89.572 36.4056 89.1114 35.7147L86.9784 36.6495L82.7366 38.6208C83.1729 39.2915 83.8273 40.3076 84.1424 41.7098H81.8155C79.9734 41.7098 78.1797 42.035 76.5314 42.6447C75.7073 42.3398 74.8347 42.096 73.9379 41.9537C74.253 41.7708 74.5438 41.5676 74.8347 41.344C77.3798 39.2102 77.0647 35.6334 77.0647 35.6334C77.0647 35.6334 72.7986 35.3692 70.2535 37.5031C69.7445 37.9298 69.3325 38.4379 69.0174 38.9663C68.4841 37.5031 67.7812 36.426 67.3206 35.735L65.1876 36.6698L60.9458 38.6411C61.3821 39.3321 62.0608 40.3482 62.3517 41.7708C55.5648 42.2382 50.4019 46.9734 50.4019 52.9076C50.4019 54.7569 50.8866 56.464 51.7835 57.9882H47.9537V77.2947C47.9537 81.2169 51.7592 84.4076 56.4374 84.4076H97.6435C102.322 84.4076 106.127 81.2169 106.127 77.2947V57.9679H102.322ZM90.6142 57.9679H82.9305C83.8273 56.4437 84.3121 54.7366 84.3121 52.8873C84.3121 51.0379 83.8273 49.3308 82.9305 47.8066H90.6142C93.935 47.8066 96.4316 49.9811 96.4316 52.8873C96.4316 55.7934 93.935 57.9679 90.6142 57.9679ZM57.6493 52.8873C57.6493 49.9811 60.1459 47.8066 63.4666 47.8066H71.2473C74.5681 47.8066 77.0647 49.9811 77.0647 52.8873C77.0647 55.7934 74.5681 57.9679 71.2473 57.9679H63.4666C60.1459 57.9679 57.6493 55.7934 57.6493 52.8873ZM98.8555 77.2744C98.8555 77.8434 98.3222 78.2905 97.6435 78.2905H56.4374C55.7587 78.2905 55.2254 77.8434 55.2254 77.2744V74.226H94.0077V68.1292H55.2254V64.0647H98.8555V77.2744Z" fill="#172743"/>
</g>
</g>
<defs>
<clipPath id="clip0_51_164">
<rect width="136" height="120" fill="white"/>
</clipPath>
<clipPath id="clip1_51_164">
<rect width="58.1734" height="48.7742" fill="white" transform="translate(47.9537 35.6129)"/>
</clipPath>
</defs>
</svg>
