<svg width="30" height="32" viewBox="0 0 30 32" fill="none" xmlns="http://www.w3.org/2000/svg">
<path d="M27.5583 4.64111L24.7983 2.54702C24.0261 1.95885 23.1076 1.49258 22.096 1.17519C21.0844 0.857797 19.9998 0.695593 18.905 0.697963H8.33333C6.124 0.699968 4.00593 1.36595 2.4437 2.54983C0.881469 3.7337 0.00264643 5.33881 0 7.01306V24.6953C0.00264643 26.3696 0.881469 27.9747 2.4437 29.1586C4.00593 30.3424 6.124 31.0084 8.33333 31.0104H21.6666C23.876 31.0084 25.994 30.3424 27.5563 29.1586C29.1185 27.9747 29.9973 26.3696 30 24.6953V9.10588C30.0027 8.27631 29.7883 7.45457 29.3691 6.6882C28.95 5.92183 28.3346 5.22605 27.5583 4.64111ZM25.2016 6.42702C25.4381 6.60551 25.6497 6.80188 25.8333 7.01306H21.6666V3.85551C21.9449 3.99611 22.2044 4.15685 22.4416 4.33546L25.2016 6.42702ZM26.6666 24.6953C26.6666 25.7003 26.1399 26.664 25.2022 27.3746C24.2645 28.0852 22.9927 28.4844 21.6666 28.4844H8.33333C7.00724 28.4844 5.73548 28.0852 4.7978 27.3746C3.86011 26.664 3.33333 25.7003 3.33333 24.6953V7.01306C3.33333 6.00814 3.86011 5.04438 4.7978 4.33379C5.73548 3.62321 7.00724 3.224 8.33333 3.224H18.3333V7.01306C18.3333 7.68301 18.6845 8.32552 19.3096 8.79924C19.9347 9.27296 20.7826 9.5391 21.6666 9.5391H26.6666V24.6953ZM21.6666 12.0651C22.1087 12.0651 22.5326 12.1982 22.8452 12.4351C23.1577 12.6719 23.3333 12.9932 23.3333 13.3282C23.3333 13.6631 23.1577 13.9844 22.8452 14.2212C22.5326 14.4581 22.1087 14.5912 21.6666 14.5912H8.33333C7.8913 14.5912 7.46738 14.4581 7.15482 14.2212C6.84226 13.9844 6.66666 13.6631 6.66666 13.3282C6.66666 12.9932 6.84226 12.6719 7.15482 12.4351C7.46738 12.1982 7.8913 12.0651 8.33333 12.0651H21.6666ZM23.3333 18.3802C23.3333 18.7152 23.1577 19.0365 22.8452 19.2733C22.5326 19.5102 22.1087 19.6433 21.6666 19.6433H8.33333C7.8913 19.6433 7.46738 19.5102 7.15482 19.2733C6.84226 19.0365 6.66666 18.7152 6.66666 18.3802C6.66666 18.0453 6.84226 17.724 7.15482 17.4871C7.46738 17.2503 7.8913 17.1172 8.33333 17.1172H21.6666C22.1087 17.1172 22.5326 17.2503 22.8452 17.4871C23.1577 17.724 23.3333 18.0453 23.3333 18.3802ZM23.0133 22.6909C23.2724 22.961 23.3798 23.2979 23.312 23.6278C23.2442 23.9578 23.0068 24.2539 22.6516 24.4516C20.963 25.3634 18.963 25.8866 16.8917 25.9584C15.6815 25.9539 14.508 25.6427 13.5583 25.0742C13.0117 24.7901 12.8033 24.6953 12.3917 24.6953C11.2774 24.826 10.226 25.1713 9.33832 25.6982C8.98624 25.8884 8.55039 25.9674 8.12281 25.9187C7.69524 25.8699 7.30941 25.6971 7.0468 25.4368C6.78419 25.1765 6.66536 24.849 6.71541 24.5236C6.76545 24.1981 6.98044 23.9001 7.31499 23.6925C8.78362 22.8285 10.5471 22.3001 12.3983 22.1693C13.5085 22.1827 14.5819 22.4735 15.4517 22.9966C15.8481 23.2668 16.3586 23.4213 16.8917 23.4323C18.2544 23.3549 19.5649 23.0021 20.6866 22.4105C21.0443 22.2141 21.4903 22.1332 21.9266 22.1858C22.3628 22.2384 22.7537 22.4201 23.0133 22.6909Z" fill="#060608"/>
</svg>
