<svg width="60" height="60" viewBox="0 0 60 60" fill="none" xmlns="http://www.w3.org/2000/svg">
<g clip-path="url(#clip0_51_254)">
<path d="M57.5 27.5H52.5V22.5C52.5 21.837 52.2366 21.2011 51.7678 20.7322C51.2989 20.2634 50.663 20 50 20C49.337 20 48.7011 20.2634 48.2322 20.7322C47.7634 21.2011 47.5 21.837 47.5 22.5V27.5H42.5C41.837 27.5 41.2011 27.7634 40.7322 28.2322C40.2634 28.7011 40 29.337 40 30C40 30.663 40.2634 31.2989 40.7322 31.7678C41.2011 32.2366 41.837 32.5 42.5 32.5H47.5V37.5C47.5 38.163 47.7634 38.7989 48.2322 39.2678C48.7011 39.7366 49.337 40 50 40C50.663 40 51.2989 39.7366 51.7678 39.2678C52.2366 38.7989 52.5 38.163 52.5 37.5V32.5H57.5C58.163 32.5 58.7989 32.2366 59.2678 31.7678C59.7366 31.2989 60 30.663 60 30C60 29.337 59.7366 28.7011 59.2678 28.2322C58.7989 27.7634 58.163 27.5 57.5 27.5Z" fill="#060608"/>
<path d="M22.5 29.9999C25.4667 29.9999 28.3668 29.1201 30.8336 27.4719C33.3003 25.8237 35.2229 23.481 36.3582 20.7401C37.4935 17.9992 37.7906 14.9832 37.2118 12.0735C36.633 9.16382 35.2044 6.49107 33.1066 4.39328C31.0088 2.2955 28.3361 0.866884 25.4264 0.288105C22.5166 -0.290673 19.5006 0.00637722 16.7597 1.14169C14.0189 2.27701 11.6762 4.19959 10.028 6.66633C8.37973 9.13307 7.5 12.0332 7.5 14.9999C7.50397 18.9769 9.0856 22.7899 11.8978 25.6021C14.71 28.4143 18.523 29.9959 22.5 29.9999ZM22.5 4.99988C24.4778 4.99988 26.4112 5.58637 28.0557 6.68519C29.7002 7.784 30.9819 9.34579 31.7388 11.1731C32.4957 13.0003 32.6937 15.011 32.3079 16.9508C31.922 18.8906 30.9696 20.6724 29.5711 22.071C28.1725 23.4695 26.3907 24.4219 24.4509 24.8077C22.5111 25.1936 20.5004 24.9956 18.6732 24.2387C16.8459 23.4818 15.2841 22.2001 14.1853 20.5556C13.0865 18.9111 12.5 16.9777 12.5 14.9999C12.5 12.3477 13.5536 9.80418 15.4289 7.92882C17.3043 6.05345 19.8478 4.99988 22.5 4.99988Z" fill="#060608"/>
<path d="M22.5 35C16.5347 35.0066 10.8155 37.3793 6.59741 41.5974C2.37927 45.8155 0.00661713 51.5347 0 57.5C0 58.163 0.263392 58.7989 0.732233 59.2678C1.20107 59.7366 1.83696 60 2.5 60C3.16304 60 3.79893 59.7366 4.26777 59.2678C4.73661 58.7989 5 58.163 5 57.5C5 52.8587 6.84374 48.4075 10.1256 45.1256C13.4075 41.8437 17.8587 40 22.5 40C27.1413 40 31.5925 41.8437 34.8744 45.1256C38.1563 48.4075 40 52.8587 40 57.5C40 58.163 40.2634 58.7989 40.7322 59.2678C41.2011 59.7366 41.837 60 42.5 60C43.163 60 43.7989 59.7366 44.2678 59.2678C44.7366 58.7989 45 58.163 45 57.5C44.9934 51.5347 42.6207 45.8155 38.4026 41.5974C34.1845 37.3793 28.4653 35.0066 22.5 35Z" fill="#060608"/>
</g>
<defs>
<clipPath id="clip0_51_254">
<rect width="60" height="60" fill="white"/>
</clipPath>
</defs>
</svg>
