<svg width="30" height="30" viewBox="0 0 30 30" fill="none" xmlns="http://www.w3.org/2000/svg">
<g clip-path="url(#clip0_42_162)">
<path d="M17.6514 15.0002L29.4509 3.20195C30.1833 2.4695 30.1833 1.28197 29.4509 0.549582C28.7184 -0.182868 27.5309 -0.182868 26.7985 0.549582L15.0002 12.3491L3.20196 0.549582C2.46951 -0.182868 1.28198 -0.182868 0.54959 0.549582C-0.182802 1.28203 -0.182861 2.46956 0.54959 3.20195L12.3491 15.0002L0.54959 26.7985C-0.182861 27.531 -0.182861 28.7185 0.54959 29.4509C1.28204 30.1833 2.46957 30.1833 3.20196 29.4509L15.0002 17.6513L26.7985 29.4509C27.5309 30.1833 28.7184 30.1833 29.4508 29.4509C30.1833 28.7184 30.1833 27.5309 29.4508 26.7985L17.6514 15.0002Z" fill="#060608"/>
</g>
<defs>
<clipPath id="clip0_42_162">
<rect width="30" height="30" fill="white"/>
</clipPath>
</defs>
</svg>
