<svg width="29" height="28" viewBox="0 0 29 28" fill="none" xmlns="http://www.w3.org/2000/svg">
<path fill-rule="evenodd" clip-rule="evenodd" d="M24.3401 3.97064C21.6886 1.41158 18.1635 0.00113837 14.4082 0C6.66977 0 0.371596 6.07207 0.368054 13.5375C0.367114 15.4377 0.777221 17.3018 1.56499 19.0194C1.9521 19.8634 2.09885 20.8128 1.8451 21.706C1.13657 24.2001 3.3952 26.5252 5.90876 25.8892L6.34456 25.779C7.21214 25.5595 8.12306 25.6868 8.95204 26.0239C10.6682 26.7218 12.5218 27.0855 14.4011 27.0864H14.407C22.1443 27.0864 28.4436 21.0132 28.4472 13.5478C28.4495 9.93115 26.9904 6.52856 24.3401 3.97064ZM14.4082 24.7994H14.4035C12.3092 24.7994 10.2563 24.2564 8.46419 23.2307C8.19078 23.0744 7.86742 23.0303 7.56211 23.1075L6.9366 23.2656C5.46394 23.638 4.14076 22.2759 4.55574 20.8146L4.66215 20.4399C4.75035 20.1294 4.69981 19.7958 4.52355 19.5253C3.35482 17.7335 2.73858 15.6628 2.73976 13.5375C2.74212 7.33339 7.97781 2.28585 14.4141 2.28585C17.5307 2.28585 20.4608 3.45837 22.6637 5.58485C24.8666 7.71246 26.079 10.539 26.0778 13.5455C26.0743 19.7519 20.8398 24.7994 14.4082 24.7994ZM20.8091 16.3721C20.4585 16.2024 18.7337 15.3839 18.4114 15.2712C18.0903 15.1585 17.8566 15.1016 17.6216 15.4397C17.3867 15.7778 16.7162 16.5405 16.5107 16.7671C16.3065 16.9925 16.1011 17.0209 15.7505 16.8513C15.3999 16.6817 14.2689 16.3254 12.929 15.1722C11.8866 14.2752 11.1818 13.1675 10.9776 12.8283C10.7733 12.4891 10.9563 12.3069 11.131 12.1384C11.2892 11.987 11.4817 11.7434 11.6576 11.5454C11.8346 11.3496 11.8925 11.2084 12.0105 10.9819C12.1274 10.7565 12.0696 10.5584 11.981 10.3888C11.8925 10.2203 11.1912 8.55486 10.8996 7.87753C10.6151 7.21727 10.3259 7.3072 10.1099 7.29696C9.90563 7.28671 9.67188 7.28557 9.43696 7.28557C9.20321 7.28557 8.82308 7.36981 8.50197 7.70905C8.18086 8.04828 7.27421 8.86677 7.27421 10.5311C7.27421 12.1965 8.53148 13.805 8.7062 14.0304C8.88092 14.2558 11.1794 17.6732 14.6986 19.1383C15.5356 19.4866 16.1896 19.695 16.6985 19.8509C17.539 20.1082 18.304 20.0718 18.9084 19.9852C19.5825 19.8885 20.9838 19.1668 21.2766 18.3767C21.5694 17.5867 21.5694 16.9082 21.4808 16.7682C21.3935 16.6259 21.1597 16.5417 20.8091 16.3721Z" fill="#2FBB18"/>
</svg>
